<?xml version="1.0" standalone="no"?>
<!DOCTYPE svg PUBLIC "-//W3C//DTD SVG 20010904//EN" "http://www.w3.org/TR/2001/REC-SVG-20010904/DTD/svg10.dtd">
<!-- Created using Krita: https://krita.org -->
<svg xmlns="http://www.w3.org/2000/svg" 
    xmlns:xlink="http://www.w3.org/1999/xlink"
    xmlns:krita="http://krita.org/namespaces/svg/krita"
    xmlns:sodipodi="http://sodipodi.sourceforge.net/DTD/sodipodi-0.dtd"
    width="737.28pt"
    height="737.28pt"
    viewBox="0 0 737.28 737.28">
<defs/>
<path id="shape0" transform="translate(205.85094202715, 276.11222104147)" fill="#f94848" fill-rule="evenodd" stroke="#f94848" stroke-width="9.0144" stroke-linecap="square" stroke-linejoin="bevel" d="M108.429 0.00778698C110.487 0.00778698 113.132 0.0310326 114.189 1.08779C141.374 28.2728 228.609 -9.77245 240.909 2.52779C253.815 15.4339 271.398 21.4968 284.469 34.5678C340.655 90.754 297.707 203.49 256.389 244.808C243.088 258.109 207.335 272.622 205.629 274.328C196.231 283.726 161.376 267.488 151.989 267.488C145.29 267.488 92.8811 273.54 91.5091 272.168C74.8431 255.502 47.6986 250.067 34.6291 223.928C-16.0759 122.518 -26.1336 1.44779 109.509 1.44779" sodipodi:nodetypes="cccccccccc"/><path id="shape1" transform="translate(450.731044631117, 330.660010228794)" fill="#fc8181" fill-rule="evenodd" stroke="#fc8181" stroke-width="9.0144" stroke-linecap="square" stroke-linejoin="bevel" d="M17.539 0C-11.4245 0 -1.77819 70.3691 26.539 60.93C45.0644 54.7549 35.943 0.36 15.649 0.36" sodipodi:nodetypes="ccc"/><path id="shape2" transform="translate(334.980011218415, 233.892894054993)" fill="#b25719" fill-rule="evenodd" stroke="#b25719" stroke-width="9.0144" stroke-linecap="square" stroke-linejoin="bevel" d="M0 6.94711C0 11.8466 10.4735 28.6476 12.78 35.5671C14.548 40.871 23.6109 86.9417 27.72 84.8871C37.287 80.1036 18.5656 52.7959 23.58 42.7671C25.571 38.785 53.4579 5.14498 50.22 1.90711C40.1188 -8.19404 30.8428 24.8843 25.92 29.8071C22.7485 32.9786 1.44 -13.6404 1.44 7.66711" sodipodi:nodetypes="ccccccc"/><path id="shape3" transform="translate(382.320010133637, 186.764267045562)" fill="#a3e261" fill-rule="evenodd" stroke="#a3e261" stroke-width="9.0144" stroke-linecap="square" stroke-linejoin="bevel" d="M0 43.0957C0 42.2508 10.8201 32.8157 12.24 31.3957C63.5274 -19.8916 77.4972 7.09574 148.14 7.09574C148.651 7.09574 150.542 3.91818 151.02 4.39574C154.601 7.97644 145.565 20.76 144.54 23.8357C115.859 109.878 0.36 81.2471 0.36 42.0157" sodipodi:nodetypes="cccccc"/>
</svg>
