<?xml version="1.0" standalone="no"?>
<!DOCTYPE svg PUBLIC "-//W3C//DTD SVG 20010904//EN" "http://www.w3.org/TR/2001/REC-SVG-20010904/DTD/svg10.dtd">
<!-- Created using Krita: https://krita.org -->
<svg xmlns="http://www.w3.org/2000/svg" 
    xmlns:xlink="http://www.w3.org/1999/xlink"
    xmlns:krita="http://krita.org/namespaces/svg/krita"
    xmlns:sodipodi="http://sodipodi.sourceforge.net/DTD/sodipodi-0.dtd"
    width="737.28pt"
    height="737.28pt"
    viewBox="0 0 737.28 737.28">
<defs/>
<path id="shape0" transform="translate(231.839999526203, 368.64)" fill="none" stroke="#000000" stroke-width="14.7888" stroke-linecap="square" stroke-linejoin="miter" stroke-miterlimit="2" d="M0 0L142.564 0" sodipodi:nodetypes="cc"/><path id="shape1" transform="translate(238.679999512224, 376.199999231183)" fill="none" stroke="#000000" stroke-width="9.0144" stroke-linecap="square" stroke-linejoin="miter" stroke-miterlimit="2" d="M0 0L29.88 167.76" sodipodi:nodetypes="cc"/><path id="shape2" transform="translate(268.55999945116, 543.959998888343)" fill="none" stroke="#000000" stroke-width="9.0144" stroke-linecap="square" stroke-linejoin="miter" stroke-miterlimit="2" d="M0 0L82.4683 0" sodipodi:nodetypes="cc"/><path id="shape3" transform="translate(350.999999282683, 368.64)" fill="none" stroke="#000000" stroke-width="9.0144" stroke-linecap="square" stroke-linejoin="miter" stroke-miterlimit="2" d="M0 177.48L17.64 0" sodipodi:nodetypes="cc"/><path id="shape4" transform="translate(246.599999496039, 400.319999181891)" fill="none" stroke="#000000" stroke-width="9.0144" stroke-linecap="square" stroke-linejoin="miter" stroke-miterlimit="2" d="M0 0L115.92 0" sodipodi:nodetypes="cc"/><path id="shape5" transform="translate(248.039999493096, 429.839999121563)" fill="none" stroke="#000000" stroke-width="9.0144" stroke-linecap="square" stroke-linejoin="miter" stroke-miterlimit="2" d="M0 0L113.762 0" sodipodi:nodetypes="cc"/><path id="shape6" transform="translate(254.159999480589, 460.079999059763)" fill="none" stroke="#000000" stroke-width="9.0144" stroke-linecap="square" stroke-linejoin="miter" stroke-miterlimit="2" d="M0 0L104.09 0" sodipodi:nodetypes="cc"/><path id="shape7" transform="translate(259.199999470289, 485.999999006792)" fill="none" stroke="#000000" stroke-width="9.0144" stroke-linecap="square" stroke-linejoin="miter" stroke-miterlimit="2" d="M0 0L95.7769 0" sodipodi:nodetypes="cc"/><path id="shape8" transform="translate(263.879999460725, 517.319998942785)" fill="none" stroke="#000000" stroke-width="9.0144" stroke-linecap="square" stroke-linejoin="miter" stroke-miterlimit="2" d="M0 0L90.8406 0" sodipodi:nodetypes="cc"/><path id="shape9" transform="translate(266.03999945631, 368.64)" fill="none" stroke="#000000" stroke-width="9.0144" stroke-linecap="square" stroke-linejoin="miter" stroke-miterlimit="2" d="M0 0L25.2 173.88" sodipodi:nodetypes="cc"/><path id="shape10" transform="translate(304.559999377589, 368.64)" fill="none" stroke="#000000" stroke-width="9.0144" stroke-linecap="square" stroke-linejoin="miter" stroke-miterlimit="2" d="M0 0L3.96 174.96" sodipodi:nodetypes="cc"/><path id="shape11" transform="translate(330.119999325354, 368.64)" fill="none" stroke="#000000" stroke-width="9.0144" stroke-linecap="square" stroke-linejoin="miter" stroke-miterlimit="2" d="M11.88 0L0 175.32" sodipodi:nodetypes="cc"/><path id="shape12" transform="translate(255.303036269257, 297.960665426917)" fill="none" stroke="#000000" stroke-width="9.0144" stroke-linecap="square" stroke-linejoin="bevel" d="M33.7481 0C32.9485 0 31.1439 8.48839 30.4388 9.54594C25.6415 16.742 22.2722 24.8402 15.5472 31.5652C13.5478 33.5646 -1.64428 34.9843 0.146368 38.5656C4.60892 47.4907 22.9245 49.9241 31.9662 52.1845C41.6615 54.6083 52.9061 48.8752 62.0041 48.8752C62.5305 48.8752 63.6452 48.7949 64.1678 48.6207C68.2982 47.2439 75.0152 51.4701 78.4231 49.7662C79.0459 49.4548 77.5628 42.2612 77.914 40.8566C80.1102 32.0717 97.0758 20.2947 103.115 14.2553C105.089 12.2814 111.199 10.5016 109.225 8.52771C107.901 7.20421 86.3833 13.6124 81.8596 13.1098C64.9265 11.2283 48.3435 1.52735 32.348 1.52735" sodipodi:nodetypes="ccccccccccccc"/>
</svg>
