<?xml version="1.0" standalone="no"?>
<!DOCTYPE svg PUBLIC "-//W3C//DTD SVG 20010904//EN" "http://www.w3.org/TR/2001/REC-SVG-20010904/DTD/svg10.dtd">
<!-- Created using Krita: https://krita.org -->
<svg xmlns="http://www.w3.org/2000/svg" 
    xmlns:xlink="http://www.w3.org/1999/xlink"
    xmlns:krita="http://krita.org/namespaces/svg/krita"
    xmlns:sodipodi="http://sodipodi.sourceforge.net/DTD/sodipodi-0.dtd"
    width="737.28pt"
    height="737.28pt"
    viewBox="0 0 737.28 737.28">
<defs/>
<path id="shape0" transform="translate(319.72540600097, 380.564874181091)" fill="#8ccaf7" fill-rule="evenodd" stroke="#8ccaf7" stroke-width="9.0144" stroke-linecap="square" stroke-linejoin="bevel" d="M1.01823 0C1.01823 12.2149 12.0968 45.0621 20.1101 53.0754C25.1781 58.1434 80.4131 57.7395 82.7315 50.7844C84.554 45.3169 96.3082 2.63072 95.8413 2.16375C95.1339 1.45639 92.0055 3.19066 91.5138 3.43654C81.439 8.47391 73.5804 2.09359 61.985 7.89131C58.9739 9.39685 23.2441 0.978578 21.892 1.65463C18.868 3.16665 0 12.2642 0 0.636396" sodipodi:nodetypes="cccccccc"/><path id="shape1" transform="translate(315.525198279932, 358.529656340911)" fill="#d8b13c" fill-rule="evenodd" stroke="#d8b13c" stroke-width="9.0144" stroke-linecap="square" stroke-linejoin="bevel" d="M0 16.6895C0 12.727 0.891104 4.08878 4.96389 2.05239C6.286 1.39133 9.0102 5.08047 9.8005 5.87076C20.5876 16.6579 53.0744 13.4819 67.2034 16.3077C73.3429 17.5356 90.7548 8.54128 96.0958 5.87076C97.1523 5.34253 102.511 -1.0269 103.096 0.143199C110.958 15.8673 99.8438 15.1974 92.532 18.8532C90.3723 19.9331 85.6344 18.9805 82.9861 18.9805C69.8855 18.9805 62.7005 21.2979 51.1662 17.4532C40.3909 13.8614 21.5286 13.6163 14.128 21.017C11.5924 23.5526 -10.2766 1.81436 13.6189 13.7621C25.4606 19.6829 47.8856 18.9805 60.4576 18.9805C61.985 18.9805 63.5123 18.9805 65.0397 18.9805C78.8126 18.9805 88.4924 10.1983 102.332 10.1983" sodipodi:nodetypes="cccccccccccccc"/><path id="shape2" transform="translate(369.364310370457, 379.29208990488)" fill="#d8b13c" fill-rule="evenodd" stroke="#d8b13c" stroke-width="9.0144" stroke-linecap="square" stroke-linejoin="bevel" d="M0 0C3.38682 0 10.4562 0.890955 15.1462 0.890955" sodipodi:nodetypes="cc"/><path id="shape3" transform="translate(318.600005841535, 288.212382745991)" fill="#ff0081" fill-rule="evenodd" stroke="#ff0081" stroke-width="9.0144" stroke-linecap="square" stroke-linejoin="bevel" d="M0 66.5676C16.2448 66.5676 49.0034 91.1159 72.54 79.3476C83.132 74.0516 94.5386 71.029 102.24 63.3276C105.464 60.1034 98.188 56.1236 97.2 54.1476C80.1316 20.0108 94.3577 34.4565 58.5 16.5276C50.9342 12.7447 73.2031 8.44972 64.8 2.84762C52.5412 -5.32494 28.8982 5.53117 23.04 17.2476C21.5903 20.1471 25.6472 27.1532 23.76 30.9276C15.4795 47.4886 0.36 24.1121 0.36 66.7476" sodipodi:nodetypes="ccccccccc"/><path id="shape4" transform="translate(329.58001356326, 385.560015867014)" fill="none" stroke="#b3cde1" stroke-width="2.6784" stroke-linecap="square" stroke-linejoin="miter" stroke-miterlimit="2" d="M0 0L19.26 54.9" sodipodi:nodetypes="cc"/><path id="shape5" transform="translate(342.540014096605, 380.880015674418)" fill="none" stroke="#b3cde1" stroke-width="2.6784" stroke-linecap="square" stroke-linejoin="miter" stroke-miterlimit="2" d="M0 0L19.26 60.3" sodipodi:nodetypes="cc"/><path id="shape6" transform="translate(368.64, 384.840015837384)" fill="none" stroke="#b3cde1" stroke-width="2.6784" stroke-linecap="square" stroke-linejoin="miter" stroke-miterlimit="2" d="M0 57.06L0 0" sodipodi:nodetypes="cc"/><path id="shape7" transform="translate(373.680015378115, 383.400015778123)" fill="none" stroke="#b3cde1" stroke-width="2.6784" stroke-linecap="square" stroke-linejoin="miter" stroke-miterlimit="2" d="M0 58.32L19.08 0" sodipodi:nodetypes="cc"/><path id="shape8" transform="translate(390.060016052204, 381.960015718863)" fill="none" stroke="#b3cde1" stroke-width="2.6784" stroke-linecap="square" stroke-linejoin="miter" stroke-miterlimit="2" d="M20.7 0L0 56.7" sodipodi:nodetypes="cc"/>
</svg>
