<?xml version="1.0" standalone="no"?>
<!DOCTYPE svg PUBLIC "-//W3C//DTD SVG 20010904//EN" "http://www.w3.org/TR/2001/REC-SVG-20010904/DTD/svg10.dtd">
<!-- Created using Krita: https://krita.org -->
<svg xmlns="http://www.w3.org/2000/svg" 
    xmlns:xlink="http://www.w3.org/1999/xlink"
    xmlns:krita="http://krita.org/namespaces/svg/krita"
    xmlns:sodipodi="http://sodipodi.sourceforge.net/DTD/sodipodi-0.dtd"
    width="737.28pt"
    height="737.28pt"
    viewBox="0 0 737.28 737.28">
<defs/>
<path id="shape0" transform="translate(225.136893303737, 353.433182678689)" fill="#8aca14" fill-rule="evenodd" stroke="#8aca14" stroke-width="4.104" stroke-linecap="square" stroke-linejoin="bevel" d="M2.43835 0.912155C2.43835 15.0121 -3.21389 103.193 2.6929 109.099C4.91308 111.32 12.2962 111.136 15.4208 111.136C85.0674 111.136 152.886 110.118 222.886 110.118C223.429 110.118 226.075 110.492 226.45 110.118C227.017 109.55 226.84 107.301 227.213 106.554C235.381 90.2184 226.195 24.481 226.195 2.43951C226.195 2.11574 226.401 0.609117 226.195 0.403039C225.052 -0.740289 122.595 0.912155 111.135 0.912155C74.4819 0.912155 37.5209 2.18495 0.910995 2.18495" sodipodi:nodetypes="cccccccccc"/><path id="shape1" transform="translate(234.900015811279, 361.891014990483)" fill="#3c9c14" fill-rule="evenodd" stroke="#3c9c14" stroke-width="4.104" stroke-linecap="square" stroke-linejoin="bevel" d="M0.54 1.70901C0.54 48.526 27.18 21.7627 27.18 7.28901C27.18 6.37801 28.0559 2.4049 27.54 1.88901C23.511 -2.13998 5.62157 1.52901 0 1.52901" sodipodi:nodetypes="cccc"/><path id="shape2" transform="translate(235.370391322688, 383.220025794798)" fill="#3c9c14" fill-rule="evenodd" stroke="#3c9c14" stroke-width="4.104" stroke-linecap="square" stroke-linejoin="bevel" d="M0.429625 0C0.429625 10.8315 0.609625 23.0005 0.609625 34.56C0.609625 50.6023 -3.18711 66.1416 8.16963 71.82C23.7974 79.6339 32.7669 58.4686 20.9496 52.56C18.0997 51.1351 11.1458 47.7962 9.24963 45.9C6.64822 43.2986 7.80963 26.6903 7.80963 22.68C7.80963 20.76 7.80963 18.84 7.80963 16.92C7.80963 8.46832 10.4549 0.18 0.789625 0.18" sodipodi:nodetypes="cccccccc"/><path id="shape3" transform="translate(235.26001583551, 424.974187341942)" fill="#3c9c14" fill-rule="evenodd" stroke="#3c9c14" stroke-width="4.104" stroke-linecap="square" stroke-linejoin="bevel" d="M24.48 20.7058C72.1461 20.7058 123.654 21.7858 173.34 21.7858C182.365 21.7858 196.586 -9.14821 208.44 2.70584C210.643 4.90838 210.435 27.5306 208.62 29.3458C206.673 31.2927 24.2066 28.2658 0 28.2658" sodipodi:nodetypes="ccccc"/><path id="shape4" transform="translate(262.351207498773, 363.419189407191)" fill="#3c9c14" fill-rule="evenodd" stroke="#3c9c14" stroke-width="4.104" stroke-linecap="square" stroke-linejoin="bevel" d="M1.16881 0.360829C20.1828 0.360829 179.02 -0.887963 181.169 1.26083C183.776 3.86765 183.454 21.3513 181.889 24.4808C181.105 26.0484 180.961 25.3808 179.009 25.3808C155.784 25.3808 159.403 9.04943 154.169 7.74083C126.309 0.775879 91.3821 10.4408 63.2688 10.4408C48.863 10.4408 33.5091 10.0542 19.1688 8.46083C16.4672 8.16065 13.7982 8.10083 11.0688 8.10083C4.44592 8.10083 -2.38007 0.0008293 0.808806 0.0008293" sodipodi:nodetypes="ccccccccc"/><path id="shape5" transform="translate(434.700022375777, 387.720019957526)" fill="#3c9c14" fill-rule="evenodd" stroke="#3c9c14" stroke-width="4.104" stroke-linecap="square" stroke-linejoin="bevel" d="M0 0C5.4056 0 -0.0640105 32.452 1.62 35.82C6.75026 46.0805 9.18 16.5559 9.18 13.68C9.18 9.27516 8.46 4.80168 8.46 0.36" sodipodi:nodetypes="cccc"/><ellipse id="shape6" transform="translate(266.4, 398.88)" rx="10.8" ry="10.8" cx="10.8" cy="10.8" fill="#3c9c14" fill-rule="evenodd" stroke="#3c9c14" stroke-width="4.104" stroke-linecap="square" stroke-linejoin="bevel"/><circle id="shape7" transform="translate(387.36, 396)" r="12.96" cx="12.96" cy="12.96" fill="#3c9c14" fill-rule="evenodd" stroke="#3c9c14" stroke-width="4.104" stroke-linecap="square" stroke-linejoin="bevel"/><ellipse id="shape8" transform="translate(307.381337649291, 375.796324674267)" rx="32.04" ry="31.68" cx="32.04" cy="31.68" fill="#3c9c14" fill-rule="evenodd" stroke="#3c9c14" stroke-width="4.104" stroke-linecap="square" stroke-linejoin="bevel"/><path id="shape9" transform="translate(324.774482400836, 384.007158531527)" fill="#8cca0d" fill-rule="evenodd" stroke="#8cca0d" stroke-width="4.104" stroke-linecap="square" stroke-linejoin="bevel" d="M12.1855 0.742843C13.0759 0.742843 -5.54986 18.441 6.42552 22.4328C10.2889 23.7206 14.8459 24.4464 18.0355 26.5728C19.5214 27.5634 18.854 29.5683 19.3855 31.1628C20.3435 34.0369 19.5074 35.8428 15.9655 35.8428C11.9202 35.8428 8.60373 34.9428 4.44552 34.9428C-8.52008 34.9428 10.98 40.0374 11.1955 40.2528C11.4553 40.5126 11.5555 41.5762 11.5555 41.8728C11.5555 46.257 12.0036 48.6232 17.8555 47.4528C19.5447 47.115 15.1914 42.2914 18.6655 41.4228C49.4705 33.7216 10.8653 20.8421 9.48552 15.3228C8.80638 12.6063 11.6215 11.8128 13.7155 11.8128C37.986 11.8128 17.6755 8.32748 17.6755 1.46284C17.6755 -0.878072 14.0549 0.292843 12.4555 0.292843" sodipodi:nodetypes="cccccccccccccc"/>
</svg>
