<?xml version="1.0" standalone="no"?>
<!DOCTYPE svg PUBLIC "-//W3C//DTD SVG 20010904//EN" "http://www.w3.org/TR/2001/REC-SVG-20010904/DTD/svg10.dtd">
<!-- Created using Krita: https://krita.org -->
<svg xmlns="http://www.w3.org/2000/svg" 
    xmlns:xlink="http://www.w3.org/1999/xlink"
    xmlns:krita="http://krita.org/namespaces/svg/krita"
    xmlns:sodipodi="http://sodipodi.sourceforge.net/DTD/sodipodi-0.dtd"
    width="737.28pt"
    height="737.28pt"
    viewBox="0 0 737.28 737.28">
<defs/>
<path id="shape0" transform="translate(296.632688646567, 155.280647716693)" fill="#feed00" fill-rule="evenodd" stroke="#feed00" stroke-width="2.9952" stroke-linecap="square" stroke-linejoin="bevel" d="M106.079 1.01823C118.062 1.01823 137.768 4.13472 146.808 8.65499C162.579 16.5407 190.571 11.1795 201.793 22.4011C203.338 23.9464 205.109 33.3403 203.32 35.1291C174.659 63.79 154.842 102.444 126.443 130.843C125.053 132.234 116.448 141.721 117.788 143.062C126.198 151.471 180.574 172.927 196.192 180.736C197.317 181.299 205.25 186.443 202.811 188.882C176.783 214.91 113.915 194.383 83.1685 209.756C75.216 213.732 68.128 201.61 59.24 201.61C36.6548 201.61 -5.93298 175.651 0.691568 169.027C24.0406 145.678 90.2459 0 110.152 0" sodipodi:nodetypes="cccccccccccc"/><path id="shape1" transform="translate(297.117944610996, 342.635658732244)" fill="#feed00" fill-rule="evenodd" stroke="#feed00" stroke-width="2.9952" stroke-linecap="square" stroke-linejoin="bevel" d="M85.2288 19.8556C92.5051 19.8556 91.5323 27.2982 87.7744 31.0561C50.772 68.0586 38.0659 144.913 1.22455 181.755C-3.26102 186.24 5.95516 192.086 6.82483 192.955C9.45254 195.583 16.6772 192.267 18.0254 190.919C36.4442 172.5 58.1988 132.139 83.1924 119.642C95.4288 113.524 203.344 4.03155 203.344 0" sodipodi:nodetypes="ccccccc"/><path id="shape2" transform="translate(355.500016547758, 357.300016631544)" fill="#feed00" fill-rule="evenodd" stroke="#feed00" stroke-width="2.9952" stroke-linecap="square" stroke-linejoin="bevel" d="M0 0C9.331 0 19.5955 14.04 28.62 14.04" sodipodi:nodetypes="cc"/><path id="shape3" transform="translate(376.873771392743, 362.497618967659)" fill="#feed00" fill-rule="evenodd" stroke="#feed00" stroke-width="2.9952" stroke-linecap="square" stroke-linejoin="bevel" d="M0.318198 2.28463C0.318198 7.77027 5.98271 9.89575 11.2006 8.33039C22.3965 4.97161 0 -6.04664 0 4.38473" sodipodi:nodetypes="ccc"/>
</svg>
