<?xml version="1.0" standalone="no"?>
<!DOCTYPE svg PUBLIC "-//W3C//DTD SVG 20010904//EN" "http://www.w3.org/TR/2001/REC-SVG-20010904/DTD/svg10.dtd">
<!-- Created using Krita: https://krita.org -->
<svg xmlns="http://www.w3.org/2000/svg" 
    xmlns:xlink="http://www.w3.org/1999/xlink"
    xmlns:krita="http://krita.org/namespaces/svg/krita"
    xmlns:sodipodi="http://sodipodi.sourceforge.net/DTD/sodipodi-0.dtd"
    width="737.28pt"
    height="737.28pt"
    viewBox="0 0 737.28 737.28">
<defs/>
<ellipse id="shape0" transform="translate(243.36, 256.32)" rx="82.8" ry="83.16" cx="82.8" cy="83.16" fill="#000000" fill-rule="evenodd" stroke="#000000" stroke-width="2.9952" stroke-linecap="square" stroke-linejoin="bevel"/><path id="shape1" transform="translate(272.025247413001, 180.841406541899)" fill="#000000" fill-rule="evenodd" stroke="#000000" stroke-width="2.9952" stroke-linecap="square" stroke-linejoin="bevel" d="M53.8457 0.254558C53.8457 26.0624 -3.11541 96.0884 0.133913 102.587C9.77348 121.866 100.392 127.609 112.394 103.605C114.018 100.358 53.0821 29.138 53.0821 0" sodipodi:nodetypes="cccc"/><path id="shape2" transform="translate(262.863896607558, 272.880000668794)" fill="#ffffff" fill-rule="evenodd" stroke="#ffffff" stroke-width="2.9952" stroke-linecap="square" stroke-linejoin="bevel" d="M33.2361 0C33.2361 16.6141 -9.56598 63.5779 17.2161 90.36C26.869 100.013 35.3289 112.973 44.7561 122.4C45.899 123.543 59.3754 129.921 58.0761 131.22C38.2686 151.027 6.93588 85.4596 3.3561 78.3C-11.366 48.8558 27.1161 27.6145 27.1161 10.98" sodipodi:nodetypes="cccccc"/>
</svg>
