<?xml version="1.0" standalone="no"?>
<!DOCTYPE svg PUBLIC "-//W3C//DTD SVG 20010904//EN" "http://www.w3.org/TR/2001/REC-SVG-20010904/DTD/svg10.dtd">
<!-- Created using Krita: https://krita.org -->
<svg xmlns="http://www.w3.org/2000/svg" 
    xmlns:xlink="http://www.w3.org/1999/xlink"
    xmlns:krita="http://krita.org/namespaces/svg/krita"
    xmlns:sodipodi="http://sodipodi.sourceforge.net/DTD/sodipodi-0.dtd"
    width="737.28pt"
    height="737.28pt"
    viewBox="0 0 737.28 737.28">
<defs/>
<path id="shape0" transform="translate(351.15925638677, 399.012402143551)" fill="#57a008" fill-rule="evenodd" stroke="#57a008" stroke-width="2.9952" stroke-linecap="square" stroke-linejoin="bevel" d="M30.4408 6.34762C30.4408 23.898 15.4304 63.4469 25.0408 82.6676C28.1964 88.9789 34.7608 155.804 34.7608 160.428C34.7608 163.179 40.3751 179.293 38.7208 180.948C37.1242 182.544 20.2265 190.893 15.6808 186.348C10.1568 180.824 8.40773 184.402 4.16077 175.908C-5.97778 155.631 5.60077 41.007 5.60077 11.7476C5.60077 9.81237 2.97128 3.57711 4.16077 2.38762C10.5516 -4.00325 29.7208 4.00261 29.7208 8.14762" sodipodi:nodetypes="ccccccccc"/><path id="shape1" transform="translate(365.400022943282, 223.787380730617)" fill="#57a008" fill-rule="evenodd" stroke="#57a008" stroke-width="2.9952" stroke-linecap="square" stroke-linejoin="bevel" d="M0 173.293C2.33132 173.293 13.689 179.764 16.56 176.893C20.8566 172.596 39.4753 90.3821 45.72 77.8926C55.4147 58.5032 70.9244 27.8482 85.32 13.4526C85.789 12.9836 93.0182 8.55086 91.08 6.61263C90.1493 5.6819 79.1645 -1.99185 76.68 0.492633C57.0271 20.1455 0 135.564 0 172.213" sodipodi:nodetypes="ccccccc"/><path id="shape2" transform="translate(381.600023960472, 398.880025045474)" fill="#57a008" fill-rule="evenodd" stroke="#57a008" stroke-width="2.9952" stroke-linecap="square" stroke-linejoin="bevel" d="M0.72 0C0.72 2.40908 0.906933 4.66613 0 6.48" sodipodi:nodetypes="cc"/><path id="shape3" transform="translate(308.630174335364, 260.922397647021)" fill="#57a008" fill-rule="evenodd" stroke="#57a008" stroke-width="2.9952" stroke-linecap="square" stroke-linejoin="bevel" d="M9.56787 1.01823C9.56787 2.21677 12.3092 4.52324 12.8771 5.09117C28.5559 20.7699 55.1338 98.703 55.1338 126.006C55.1338 127.626 56.6768 136.563 55.3884 137.207C36.0802 146.861 42.1764 90.3933 34.7692 82.9861C27.1944 75.4113 5.93854 19.9791 0.149209 8.40043C-1.46744 5.16712 10.5861 0.9269 10.5861 0" sodipodi:nodetypes="ccccccc"/><path id="shape4" transform="translate(99.0802476143034, 98.8025207316866)" fill="#57a008" fill-rule="evenodd" stroke="#57a008" stroke-width="2.9952" stroke-linecap="square" stroke-linejoin="bevel" d="M24.126 2.51174C24.126 4.09703 32.3146 3.52997 34.3084 3.52997C40.0055 3.52997 111.184 13.711 112.203 14.7305C128.392 30.9188 209.3 21.5682 230.318 63.6058C235.898 74.7647 234.962 91.2204 241.519 104.335C251.111 123.52 235.368 151.215 227.264 159.32C175.621 210.963 90.7842 178.63 42.9634 130.809C33.1397 120.985 27.4104 98.9645 16.4893 88.0434C5.49697 77.0511 -8.25845 16.0589 6.30695 1.49351C10.1836 -2.3831 21.5968 2.51174 24.126 2.51174" sodipodi:nodetypes="cccccccccc"/><path id="shape5" transform="translate(411.369103169501, 43.3653648379896)" fill="#57a008" fill-rule="evenodd" stroke="#57a008" stroke-width="2.9952" stroke-linecap="square" stroke-linejoin="bevel" d="M46.8361 188.792C66.239 188.792 114.921 208.784 134.404 189.301C152.66 171.045 172.45 158.892 189.898 141.444C201.344 129.998 200.568 110.918 211.281 100.206C221.014 90.4721 211.796 67.1016 218.408 53.876C226.819 37.0541 215.939 12.7134 206.699 3.47339C195.155 -8.07038 146.985 12.2755 140.004 19.256C130.837 28.4236 73.3323 24.8342 60.0731 38.0933C40.8029 57.3636 18.2525 65.7317 5.08851 92.0597C-15.1609 132.559 31.5626 176.398 31.5626 179.628" sodipodi:nodetypes="cccccccccc"/><path id="shape6" transform="translate(147.134780655056, 122.188053139147)" fill="#409d04" fill-rule="evenodd" stroke="#409d04" stroke-width="2.9952" stroke-linecap="square" stroke-linejoin="bevel" d="M0 0C57.5848 0 109.109 35.796 139.498 66.1852C153.293 79.9799 176.292 134.269 165.972 144.589C165.058 145.503 162.408 146.117 162.408 146.117C162.408 146.117 158.844 128.888 158.844 120.152C158.844 95.8822 104.111 25.965 87.059 25.965" sodipodi:nodetypes="cccccc"/><path id="shape7" transform="translate(443.945422648248, 80.4404710699649)" fill="#409d04" fill-rule="evenodd" stroke="#409d04" stroke-width="2.9952" stroke-linecap="square" stroke-linejoin="bevel" d="M0.259077 146.371C0.259077 98.083 13.5532 79.6197 44.5522 48.6207C49.7611 43.4119 68.5772 39.5182 72.8082 31.0561C76.0062 24.6603 114.024 12.1029 122.956 7.63675C126.23 5.99973 130.848 0 130.848 0C130.848 0 115.342 10.8075 106.919 15.0189C72.8933 32.0318 48.1715 55.1837 20.6238 82.7315C5.51895 97.8363 8.65951 124.585 8.65951 144.335C8.65951 145.511 10.5049 151.399 10.4414 151.462C7.91032 153.993 2.79556 148.662 1.78643 148.662C-0.178594 148.662 0.00451895 145.395 0.00451895 144.589" sodipodi:nodetypes="ccccccccccc"/>
</svg>
