<?xml version="1.0" standalone="no"?>
<!DOCTYPE svg PUBLIC "-//W3C//DTD SVG 20010904//EN" "http://www.w3.org/TR/2001/REC-SVG-20010904/DTD/svg10.dtd">
<!-- Created using Krita: https://krita.org -->
<svg xmlns="http://www.w3.org/2000/svg" 
    xmlns:xlink="http://www.w3.org/1999/xlink"
    xmlns:krita="http://krita.org/namespaces/svg/krita"
    xmlns:sodipodi="http://sodipodi.sourceforge.net/DTD/sodipodi-0.dtd"
    width="737.28pt"
    height="737.28pt"
    viewBox="0 0 737.28 737.28">
<defs/>
<rect id="shape0" transform="matrix(0.863630390743275 0.504125528201681 -0.504125528201681 0.863630390743275 248.617141600418 132.198120719114)" fill="#009900" fill-rule="evenodd" stroke="#009900" stroke-width="2.9952" stroke-linecap="square" stroke-linejoin="bevel" width="120.96" height="120.96"/><path id="shape1" transform="translate(252.000000231015, 132.300000121283)" fill="#009900" fill-rule="evenodd" stroke="#009900" stroke-width="2.9952" stroke-linecap="square" stroke-linejoin="bevel" d="M0 1.62C0 0.845371 1.46903 0 2.34 0" sodipodi:nodetypes="cc"/><path id="shape2" transform="translate(248.760000228045, 122.250272503699)" fill="#009900" fill-rule="evenodd" stroke="#009900" stroke-width="2.9952" stroke-linecap="square" stroke-linejoin="bevel" d="M0.18 9.50973C33.1308 9.50973 76.6699 -24.1754 100.44 35.2497C105.147 47.0162 117.332 58.8581 105.12 71.0697C103.201 72.9884 88.9116 67.4683 86.76 67.1097C64.5384 63.4061 0 34.4411 0 9.32973" sodipodi:nodetypes="ccccc"/><rect id="shape3" transform="matrix(0.839953923349911 -0.542657725135381 0.542657725135381 0.839953923349911 371.91396611342 171.900419691876)" fill="#009900" fill-rule="evenodd" stroke="#009900" stroke-width="2.9952" stroke-linecap="square" stroke-linejoin="bevel" width="111.04820474096" height="110.427823708888"/><path id="shape4" transform="translate(398.377488106591, 246.921689163152)" fill="#009900" fill-rule="evenodd" stroke="#009900" stroke-width="2.9952" stroke-linecap="square" stroke-linejoin="bevel" d="M21.8985 0C21.8985 7.97989 -18.499 17.31 10.4434 17.31C14.1769 17.31 17.9104 17.31 21.6439 17.31C27.1905 17.31 33.2527 15.2735 38.6994 15.2735" sodipodi:nodetypes="cccc"/><path id="shape5" transform="translate(430.203767717244, 172.845182414206)" fill="#009900" fill-rule="evenodd" stroke="#009900" stroke-width="2.9952" stroke-linecap="square" stroke-linejoin="bevel" d="M0 89.35C0 91.8035 30.7466 92.1502 34.6199 92.1502C42.8415 92.1502 62.362 96.3528 69.749 92.6593C82.332 86.3678 101.422 26.6205 113.533 14.5098C117.455 10.5877 121.679 0 121.679 0C121.679 0 117.08 2.17211 114.806 3.30926C104.509 8.45759 93.1407 18.8373 79.4222 18.8373" sodipodi:nodetypes="ccccccc"/><path id="shape6" transform="translate(342.63298497395, 113.002643727471)" fill="#009900" fill-rule="evenodd" stroke="#009900" stroke-width="2.9952" stroke-linecap="square" stroke-linejoin="bevel" d="M116.727 1.65736C81.919 1.65736 47.2092 0.937365 12.687 0.937365C11.5666 0.937365 0.657921 -0.744396 0.0870406 0.397365C-0.71877 2.00899 4.30994 4.21881 5.30704 4.71737C13.226 8.67683 35.187 43.9698 35.187 52.5974" sodipodi:nodetypes="ccccc"/><path id="shape7" transform="translate(377.100022116111, 121.139858653112)" fill="#009900" fill-rule="evenodd" stroke="#009900" stroke-width="2.9952" stroke-linecap="square" stroke-linejoin="bevel" d="M0 36.5402C0 69.557 69.0521 24.9965 61.2 1.44015C60.7049 -0.0450148 55.7235 0.000148451 54.9 0.000148451C43.559 0.000148451 0.72 23.5863 0.72 37.9802" sodipodi:nodetypes="cccc"/><path id="shape8" transform="translate(470.160017538557, 271.381324742402)" fill="#009900" fill-rule="evenodd" stroke="#009900" stroke-width="2.9952" stroke-linecap="square" stroke-linejoin="bevel" d="M1.44 55.8587C23.4677 55.8587 46.4375 246.301 153.36 139.379C176.652 116.087 116.166 15.4245 101.16 0.418685C99.4981 -1.24319 95.8741 2.57869 95.04 2.57869C85.3947 2.57869 57.5929 24.6634 47.52 31.3787C41.2181 35.58 0 51.2994 0 56.9387" sodipodi:nodetypes="cccccc"/><path id="shape9" transform="translate(389.924860274382, 428.930989552413)" fill="#009900" fill-rule="evenodd" stroke="#009900" stroke-width="2.9952" stroke-linecap="square" stroke-linejoin="bevel" d="M52.4977 0C52.4977 5.37906 48.8773 25.9083 52.4977 29.5288C61.1285 38.1596 203.99 28.2857 206.76 31.0561C208.195 32.4905 202.442 40.4557 201.924 41.493C184.646 76.0479 164.199 123.256 138.538 148.917C129.197 158.258 60.4991 144.988 52.4977 152.99C50.693 154.794 52.3862 182.844 51.2249 182.264C39.2793 176.291 13.7799 114.756 6.93176 101.06C6.37835 99.9529 -0.713417 91.3949 0.0586863 90.6228C7.34871 83.3328 52.7523 3.49507 52.7523 0.509117" sodipodi:nodetypes="cccccccccc"/><path id="shape10" transform="translate(145.080000659899, 457.920002082856)" fill="#009900" fill-rule="evenodd" stroke="#009900" stroke-width="2.9952" stroke-linecap="square" stroke-linejoin="bevel" d="M0 1.08C43.0298 1.08 91.402 3.24 137.88 3.24C158 3.24 177.869 3.6 198 3.6C202.08 3.6 210.24 3.6 210.24 3.6C210.24 3.6 207.36 6.44828 207.36 8.28C207.36 25.2397 208.08 42.2333 208.08 59.76C208.08 70.1565 214.652 113.308 208.44 119.52C208.383 119.577 207.363 119.88 207.36 119.88C186.069 119.88 75.1147 125.515 66.96 117.36C54.5221 104.922 41.7515 83.8629 33.12 66.6C26.0691 52.4982 18.6708 29.8308 8.64 19.8C6.52064 17.6806 -0.440124 0 0.72 0" sodipodi:nodetypes="cccccccccccc"/><path id="shape11" transform="translate(110.976569643494, 294.480001339447)" fill="#009900" fill-rule="evenodd" stroke="#009900" stroke-width="2.9952" stroke-linecap="square" stroke-linejoin="bevel" d="M4.94343 0.72C17.8023 0.72 109.998 -0.425708 111.503 1.08C125.128 14.7043 127.246 38.0626 141.743 52.56C145.606 56.4231 166.96 92.8634 164.783 95.04C164.386 95.4378 141.293 75.2853 132.743 79.56C126.646 82.6087 104.487 135.537 95.3034 144.72C93.617 146.406 79.1075 144 75.5034 144C29.6337 144 29.0027 137.459 4.94343 113.4C-14.0889 94.3676 27.7536 33.2197 30.8634 27C31.4674 25.7921 35.3378 18.5143 35.1834 18.36C31.0661 14.2427 22.9604 13.3369 18.9834 9.36C16.462 6.83857 9.76754 0 5.66343 0" sodipodi:nodetypes="cccccccccccc"/>
</svg>
