<?xml version="1.0" standalone="no"?>
<!DOCTYPE svg PUBLIC "-//W3C//DTD SVG 20010904//EN" "http://www.w3.org/TR/2001/REC-SVG-20010904/DTD/svg10.dtd">
<!-- Created using Krita: https://krita.org -->
<svg xmlns="http://www.w3.org/2000/svg" 
    xmlns:xlink="http://www.w3.org/1999/xlink"
    xmlns:krita="http://krita.org/namespaces/svg/krita"
    xmlns:sodipodi="http://sodipodi.sourceforge.net/DTD/sodipodi-0.dtd"
    width="737.28pt"
    height="737.28pt"
    viewBox="0 0 737.28 737.28">
<defs/>
<path id="shape0" transform="translate(20.0839503885624, 166.838666319722)" fill="#999999" fill-rule="evenodd" stroke="#999999" stroke-width="12.9384" stroke-linecap="square" stroke-linejoin="bevel" d="M0.789842 8.29754C0.789842 29.4543 1.07672 267.216 2.31719 268.456C7.57349 273.713 74.5011 268.965 87.8488 268.965C145.847 268.965 208.666 256.264 266.549 265.911C294.524 270.573 342.084 272.228 369.39 265.402C396.171 258.706 465.785 279.313 475.287 260.31C482.455 245.973 470.196 41.8236 470.196 9.82489C470.196 8.60771 470.97 2.96272 470.196 2.18814C469.042 1.0348 464.153 2.69726 463.068 2.69726C440.004 2.69726 294.657 -0.91992 286.404 3.20637C267.464 12.6767 212.695 9.16479 192.218 5.75196C176.826 3.18664 5.91555 -2.42845 2.31719 1.16991C-1.76587 5.25297 0.789842 7.46629 0.789842 11.8614" sodipodi:nodetypes="ccccccccccccc"/><path id="shape1" transform="translate(61.5370481317096, 431.663505218879)" fill="#636363" fill-rule="evenodd" stroke="#636363" stroke-width="12.9384" stroke-linecap="square" stroke-linejoin="bevel" d="M6.68462 11.7773C6.68462 12.6258 6.68462 13.4744 6.68462 14.3229C6.68462 23.5632 14.9712 58.9845 7.19373 66.7619C6.61826 67.3374 6.94342 73.5099 7.70285 73.8896C44.9447 92.5105 98.9829 62.2293 135.491 74.3987C175.326 87.6771 377.327 78.9807 433.325 78.9807C464.587 78.9807 568.03 90.3916 584.023 74.3987C607.209 51.2133 535.831 -10.6819 499.001 1.59497C472.101 10.5615 460.462 37.0787 445.034 52.5067C442.539 55.0022 442.489 41.3725 442.489 39.2696C442.489 31.1529 440.948 6.17264 434.852 4.14055C421.934 -0.165576 401.448 6.17702 387.504 6.17702C319.744 6.17702 252.033 7.19525 184.876 7.19525C142.402 7.19525 99.8144 2.6132 57.0872 2.6132C42.5027 2.6132 26.2026 5.15879 12.2849 5.15879C7.47238 5.15879 -0.823228 14.832 0.0660957 14.832C1.53015 14.832 3.62905 16.8685 5.15726 16.8685" sodipodi:nodetypes="ccccccccccccccccc"/><ellipse id="shape2" transform="translate(144.000000123816, 454.680000196042)" rx="54.36" ry="54.36" cx="54.36" cy="54.36" fill="#ffffff" fill-rule="evenodd" stroke="#000000" stroke-width="12.9384" stroke-linecap="square" stroke-linejoin="bevel"/><circle id="shape3" transform="translate(519.84, 445.098519212425)" r="58.32" cx="58.32" cy="58.32" fill="#ffffff" fill-rule="evenodd" stroke="#000000" stroke-width="12.9384" stroke-linecap="square" stroke-linejoin="bevel"/><ellipse id="shape4" transform="translate(194.040000050075, 502.919999883158)" rx="6.12" ry="6.12000000000003" cx="6.12" cy="6.12000000000003" fill="#999999" fill-rule="evenodd" stroke="#999999" stroke-width="12.9384" stroke-linecap="square" stroke-linejoin="bevel"/><ellipse id="shape5" transform="translate(569.879999916541, 493.919999766315)" rx="9.35999999999996" ry="9.36000000000001" cx="9.35999999999996" cy="9.36000000000001" fill="#999999" fill-rule="evenodd" stroke="#999999" stroke-width="5.46" stroke-linecap="square" stroke-linejoin="bevel"/><path id="shape6" transform="translate(199.31926215476, 461.514460136117)" fill="none" stroke="#999999" stroke-width="5.4648" stroke-linecap="square" stroke-linejoin="miter" stroke-miterlimit="2" d="M0 0L0 35.6827" sodipodi:nodetypes="cc"/><path id="shape7" transform="translate(150.45892039957, 509.37144772883)" fill="none" stroke="#999999" stroke-width="5.4648" stroke-linecap="square" stroke-linejoin="miter" stroke-miterlimit="2" d="M39.1871 0L0 0" sodipodi:nodetypes="cc"/><path id="shape8" transform="translate(211.53806749758, 509.880564618115)" fill="none" stroke="#999999" stroke-width="5.4648" stroke-linecap="square" stroke-linejoin="miter" stroke-miterlimit="2" d="M0 0L33.1083 0" sodipodi:nodetypes="cc"/><path id="shape9" transform="translate(201.101171267254, 519.553785514514)" fill="none" stroke="#999999" stroke-width="5.4648" stroke-linecap="square" stroke-linejoin="miter" stroke-miterlimit="2" d="M0 0L0 35.9369" sodipodi:nodetypes="cc"/><path id="shape10" transform="translate(168.460003819708, 518.280993291304)" fill="none" stroke="#999999" stroke-width="5.4648" stroke-linecap="square" stroke-linejoin="miter" stroke-miterlimit="2" d="M27.55 0L0 27.55" sodipodi:nodetypes="cc"/><path id="shape11" transform="translate(208.483366161875, 516.244525734167)" fill="none" stroke="#999999" stroke-width="5.4648" stroke-linecap="square" stroke-linejoin="miter" stroke-miterlimit="2" d="M0 0L25.1904 25.1904" sodipodi:nodetypes="cc"/><path id="shape12" transform="translate(165.952900783124, 476.514203246479)" fill="none" stroke="#999999" stroke-width="5.4648" stroke-linecap="square" stroke-linejoin="miter" stroke-miterlimit="2" d="M27.0024 27.0024L0 0" sodipodi:nodetypes="cc"/><path id="shape13" transform="translate(207.719690827949, 477.794271077887)" fill="none" stroke="#999999" stroke-width="5.4648" stroke-linecap="square" stroke-linejoin="miter" stroke-miterlimit="2" d="M0 24.4495L24.4495 0" sodipodi:nodetypes="cc"/><path id="shape14" transform="translate(579.960008521241, 451.043756130948)" fill="none" stroke="#999999" stroke-width="5.4648" stroke-linecap="square" stroke-linejoin="miter" stroke-miterlimit="2" d="M0 36.2163L0 0" sodipodi:nodetypes="cc"/><path id="shape15" transform="translate(587.340008629674, 473.775088279035)" fill="none" stroke="#999999" stroke-width="5.4648" stroke-linecap="square" stroke-linejoin="miter" stroke-miterlimit="2" d="M0 17.9849L31.1508 0" sodipodi:nodetypes="cc"/><path id="shape16" transform="translate(595.98000875662, 502.920007389307)" fill="none" stroke="#999999" stroke-width="5.4648" stroke-linecap="square" stroke-linejoin="miter" stroke-miterlimit="2" d="M0 0L32.7842 0" sodipodi:nodetypes="cc"/><path id="shape17" transform="translate(591.300008687857, 514.260007555923)" fill="none" stroke="#999999" stroke-width="5.4648" stroke-linecap="square" stroke-linejoin="miter" stroke-miterlimit="2" d="M0 0L23.7317 23.7317" sodipodi:nodetypes="cc"/><path id="shape18" transform="translate(579.960008521241, 519.120007627331)" fill="none" stroke="#999999" stroke-width="5.4648" stroke-linecap="square" stroke-linejoin="miter" stroke-miterlimit="2" d="M0 0L0 35.1226" sodipodi:nodetypes="cc"/><path id="shape19" transform="translate(542.154498335311, 512.640007532121)" fill="none" stroke="#999999" stroke-width="5.4648" stroke-linecap="square" stroke-linejoin="miter" stroke-miterlimit="2" d="M26.4655 0L0 26.4655" sodipodi:nodetypes="cc"/><path id="shape20" transform="translate(527.131915526146, 503.640007399886)" fill="none" stroke="#999999" stroke-width="5.4648" stroke-linecap="square" stroke-linejoin="miter" stroke-miterlimit="2" d="M36.0881 0L0 0" sodipodi:nodetypes="cc"/><path id="shape21" transform="translate(542.065976030112, 467.905974940494)" fill="none" stroke="#999999" stroke-width="5.4648" stroke-linecap="square" stroke-linejoin="miter" stroke-miterlimit="2" d="M25.114 25.114L0 0" sodipodi:nodetypes="cc"/><path id="shape22" transform="translate(507.996974994168, 257.399127875923)" fill="#bababa" fill-rule="evenodd" stroke="#bababa" stroke-width="5.4648" stroke-linecap="square" stroke-linejoin="bevel" d="M21.2031 3.96089C13.677 3.96089 6.66702 14.5369 2.12305 19.0809C-2.4339 23.6378 1.76305 180.402 1.76305 196.921C1.76305 198.842 0.862475 208.26 2.12305 209.521C3.6664 211.064 9.01549 199.235 9.32305 199.081C28.9326 189.276 55.6516 149.345 92.4831 167.761C119.014 181.026 152.963 202.654 152.963 243.001C152.963 247.426 141.194 249.952 144.323 253.081C148.772 257.53 201.347 253.297 204.083 250.561C211.387 243.257 215.592 216.34 209.483 204.121C199.074 183.303 220.197 146.708 209.483 125.281C190.31 86.9348 165.776 35.8535 135.323 5.40089C132.093 2.17115 109.463 3.60089 104.363 3.60089C90.7919 3.60089 17.2431 -5.59309 17.2431 5.40089" sodipodi:nodetypes="cccccccccccccc"/><path id="shape23" transform="translate(553.320030932193, 423.000023646927)" fill="#bababa" fill-rule="evenodd" stroke="#bababa" stroke-width="5.4648" stroke-linecap="square" stroke-linejoin="bevel" d="M14.04 0C55.164 0 136.012 65.7342 104.76 81.36C100.124 83.6779 102.997 69.2312 102.24 66.96C97.9894 54.2082 94.1357 43.3757 85.68 34.92C62.9337 12.1737 40.7343 3.96 0 3.96" sodipodi:nodetypes="ccccc"/><path id="shape24" transform="translate(576.720032240321, 409.320022882176)" fill="#bababa" fill-rule="evenodd" stroke="#bababa" stroke-width="5.4648" stroke-linecap="square" stroke-linejoin="bevel" d="M0 0C1.85238 0 44.9047 47.2553 58.68 33.48C62.8193 29.3407 8.28 -2.18175 8.28 11.88" sodipodi:nodetypes="ccc"/><path id="shape25" transform="translate(581.816304785671, 418.320023385302)" fill="#bababa" fill-rule="evenodd" stroke="#bababa" stroke-width="5.4648" stroke-linecap="square" stroke-linejoin="bevel" d="M0.663728 1.44C-2.76003 1.44 7.91263 6.48 13.2637 6.48C22.1127 6.48 6.84015 0 2.10373 0" sodipodi:nodetypes="ccc"/><path id="shape26" transform="translate(531.87176741008, 278.88671984461)" fill="#75a3ff" fill-rule="evenodd" stroke="#75a3ff" stroke-width="5.4648" stroke-linecap="square" stroke-linejoin="bevel" d="M2.44639 3.67314C84.4092 3.67314 111.388 -22.0669 139.653 62.7307C142.498 71.2652 162.445 102.56 152.127 112.879C152.08 112.926 140.558 109.965 139.908 109.315C115.545 84.9524 30.3219 90.8608 3.97374 64.5126C-1.66897 58.8699 -0.968634 2.90947 3.97374 2.90947" sodipodi:nodetypes="cccccc"/>
</svg>
